<?xml version="1.0" encoding="utf-8"?>
<!-- Generator: Adobe Illustrator 21.0.0, SVG Export Plug-In . SVG Version: 6.00 Build 0)  -->
<svg version="1.1" id="Layer_1" xmlns="http://www.w3.org/2000/svg" xmlns:xlink="http://www.w3.org/1999/xlink" x="0px" y="0px"
	 viewBox="0 0 200 70" enable-background="new 0 0 200 70" xml:space="preserve">
<defs>
	<filter id="bubble-shadow" x="-20%" y="-20%" width="140%" height="140%">
		<feGaussianBlur in="SourceAlpha" stdDeviation="2" result="blur"/>
		<feOffset dx="2" dy="2" result="offsetBlur"/>
		<feFlood flood-color="#172B4D" flood-opacity="0.3" result="offsetColor"/>
		<feComposite in="offsetColor" in2="offsetBlur" operator="in" result="offsetBlur"/>
		<feMerge>
			<feMergeNode in="offsetBlur"/>
			<feMergeNode in="SourceGraphic"/>
		</feMerge>
	</filter>
</defs>

<g>
	<g filter="url(#bubble-shadow)">
		<circle cx="35" cy="35" r="30" fill="#0052CC" opacity="0.1"/>
		<circle cx="160" cy="35" r="25" fill="#8A096B" opacity="0.1"/>
	</g>

	<g filter="url(#bubble-shadow)">
		<path fill="#0855B2" d="M143.9,16.9c10.7,1.8,20.8,4.6,29,10.8c7.4,5.6,7.5,12.7,0.5,18.6c-5.9,4.9-13.3,7.5-21.1,9.5
			c-16.2,4.2-32.8,4.7-49.6,3.2c-2.4-0.2-4.8-0.6-7.3-0.9c0.1-0.6,0.5-0.4,1-0.3c6.6,0.1,13.1,0.5,19.7,0
			c13.8-0.9,27.1-2.9,39.3-8.6c4.2-1.9,7.9-4.4,10.4-7.8c3.2-4.2,2.9-8.4-0.3-12.5c-2.8-3.5-6.8-5.9-11.1-7.9
			c-3.5-1.6-7.3-2.9-11.1-4C143.3,16.9,143.4,16.8,143.9,16.9z"/>
		<path fill="#89086B" d="M50,53.2c-10.4-1.8-20.3-4.5-28.5-10.5c-7.6-5.6-7.5-13.9,0.3-19.5c6.3-4.5,13.7-7.1,21.5-8.9
			c14.3-3.4,29-4.2,43.8-3.1c3.1,0.2,6.1,0.7,9.1,1c-0.9,1-2,0.3-3.1,0.3c-7.3,0-14.7-0.1-22,0.6c-11.7,1.2-23.1,3.3-33.4,8.3
			c-2.4,1.1-4.5,2.5-6.5,4.1c-7.2,5.7-7,13.3,0.4,18.8c4.4,3.3,9.5,5.6,15,7.4c1.2,0.4,2.5,0.8,3.7,1.1C50.5,53.2,50.4,53.4,50,53.2
			z"/>
		<path d="M145.7,32.3c-0.7,2-1.3,3.6-1.9,5.3c-0.2,0.5-0.6,1.1-0.1,1.7c1,1.2,0.1,1.5-1.2,1.5c-0.6,0-1.1,0-1.7,0
			c-0.6,0-1.4,0.2-1.7-0.3c-0.5-0.7,0.5-0.9,0.9-1.3c0.5-0.4,0.7-1,0.8-1.5c0.8-2.4,1.7-4.7,2.5-7.1c0.3-0.8,0.7-1.5,0.1-2.3
			c-0.4-0.5-0.2-1.1,0.8-1.2c3.6-0.6,5,0,6.7,2.7c0.9,1.5,1.8,3,3,4.9c0.2-2.6,2.5-4.4,1.1-6.8c-0.2-0.3,0.1-0.6,0.4-0.7
			c1.4-0.2,2.9-0.3,4.3,0c0.6,0.1,0.6,0.7,0.1,0.9c-1.6,0.9-1.6,2.3-2.1,3.6c-0.9,2.4-1.6,4.7-2.5,7.1c-0.4,1-0.9,1.9-2.4,2
			c-1.6,0.1-2.5-0.7-3.1-1.7C148.4,37,147.1,34.8,145.7,32.3z"/>
		<path d="M131.4,36.7c-3.7-0.3-4.2-0.2-4.7,1.5c-0.1,0.3-0.2,0.6-0.1,0.8c1.3,2-0.6,1.7-1.9,1.7c-0.1,0-0.3,0-0.4,0
			c-1.1-0.2-2.8,0.5-3.3-0.5c-0.5-1.1,1.5-1,2.1-1.7c0.5-0.5,0.9-1,1.3-1.6c1.5-2.4,2.8-4.9,4.3-7.2c1.7-2.8,5.1-3.8,8.7-2.7
			c2,0.6,3,2.1,2.5,3.8c-0.6,2.1-1.4,4.1-2.1,6.1c-0.3,0.9-0.9,1.8-0.2,2.8c0.4,0.6-0.2,0.9-0.9,1c-2.2,0-4.3,0.1-6.5,0
			c-0.9,0-1.4-0.6-0.5-1.1C130.9,38.9,131,37.8,131.4,36.7z"/>
		<path d="M60.4,40.8c-1,0-2.1,0.1-3.1,0c-1-0.1-1.2-0.5-0.5-1.1c0.1-0.1,0.2-0.1,0.3-0.2c1-0.7,1.8-1.9,1.2-2.6
			c-0.5-0.6-2.4-0.5-3.3,0c-0.9,0.4-1.6,1.6-1.1,2.6c1,1.6-0.2,1.5-1.4,1.5c-1,0-2.1,0-3.1,0c-0.5,0-1,0-1.2-0.5
			c-0.2-0.5,0.2-0.8,0.7-0.9c1.9-0.6,2.6-2,3.4-3.3c1.2-2.1,2.4-4.3,3.7-6.3c1.7-2.7,5.3-3.7,8.7-2.6c2.1,0.7,2.9,2.1,2.2,4.3
			c-0.6,1.9-1.3,3.9-2,5.8c-0.3,0.9-0.8,1.7-0.1,2.6c0.4,0.7-0.2,0.9-0.9,1C62.6,40.8,61.5,40.7,60.4,40.8
			C60.4,40.8,60.4,40.8,60.4,40.8z"/>
		<path d="M39.9,40.8c-4.8-0.1-7.6-2.7-7-6.6c0.7-4.9,5.4-8.1,10.5-7.3c0.5,0.1,1,0.2,1.4,0.4c1.1,0.6,2.1,0.9,3.3,0
			c0.6-0.4,1.5-0.5,2.2-0.1c0.8,0.4,0.4,1.1,0.2,1.7c-0.3,0.8-0.7,1.6-1.1,2.4c-0.3,0.6-0.5,1.2-1.5,1.2c-0.9,0-1.3-0.5-1.7-1.1
			c-0.1-0.1-0.2-0.3-0.3-0.5c-0.5-0.7-0.8-1.7-2.1-1.7c-1.3,0-2,0.8-2.5,1.6c-1.1,1.7-1.8,3.5-1.9,5.4c-0.1,0.8,0.1,1.6,1,1.9
			c0.9,0.4,1.9,0.2,2.8-0.3c0.7-0.4,1.3-1,2-1.5c0.6-0.4,1.1-0.7,1.8-0.2c0.8,0.5,0.7,1.1,0.2,1.7C45.3,39.9,43,41,39.9,40.8z"/>
		<path d="M73.1,40.8c-1.9,0-3.8,0-5.7,0c-0.5,0-1.2,0.1-1.4-0.4c-0.2-0.5,0.3-0.7,0.7-0.9c0.7-0.4,0.9-1,1.1-1.6
			c0.9-2.6,1.8-5.2,2.7-7.7c0.1-0.4,0.4-0.9,0.2-1.2C69.6,26.6,71.5,27,73,27c1.5,0,2.9,0,4.4,0c0.5,0,1-0.1,1.3,0.4
			c0.2,0.5-0.2,0.7-0.6,1c-0.8,0.4-1,1-1.2,1.7c-0.8,2.4-1.7,4.7-2.4,7.1c-0.2,0.5-0.9,1.2-0.2,1.5c0.7,0.3,1.8,0.3,2.5-0.3
			c0.7-0.6,1.3-1.2,1.9-1.8c0.8-0.8,1.8-1.4,3.1-0.9c1.2,0.5,0.4,1.4,0.2,2.1c-0.9,2.9-1.1,3-4.7,3C75.9,40.8,74.5,40.8,73.1,40.8z"
			/>
		<path d="M105.1,33.8c1.1-1.6,2.2-3.3,3.4-4.9c0.7-1,1.5-1.8,3-1.9c1.1-0.1,2.2,0,2.7,0.9c0.6,0.9,0.5,1.9-0.4,2.7
			c-0.8,0.7-1.8,1-2.8,0.5c-0.9-0.5-1.3-0.2-1.7,0.5c-1.8,2.5-3.6,5-5.4,7.5c-0.6,0.8-1.3,1.8-2.7,1.6c-1.5-0.2-1.6-1.3-1.8-2.3
			c-0.7-2.8-1.2-5.5-1.8-8.3c-0.1-0.4-0.2-0.9-0.4-1.3C95.9,27,95.8,27,98.6,27c1.6,0,3.2,0,4.8,0c0.7,0,1.6,0.3,1.2,0.8
			C103.1,29.9,104.8,31.8,105.1,33.8z"/>
		<path d="M86.4,40.8c-0.2,0-0.4,0-0.6,0c-1-0.1-2.4,0.4-3-0.2c-1.1-1,1-1.2,1.2-2c1-3.1,2.1-6.3,3.2-9.4c0.1-0.3,0-0.7-0.2-1
			c-0.5-0.9,0.1-1.2,1-1.2c2.1,0,4.2,0,6.3,0c1,0,1.4,0.6,0.6,1.1c-1.3,0.8-1.5,2-1.9,3.1c-0.7,2.1-1.5,4.3-2.2,6.4
			c-0.1,0.4-0.4,0.9-0.3,1.2c1.2,2.3-0.8,2-2.3,2C87.5,40.8,86.9,40.8,86.4,40.8z"/>
		<path d="M119.8,27c1,0,2.1,0,3.1,0c0.8,0,1.4,0.5,0.6,1c-1.8,1.1-1.8,2.8-2.4,4.3c-0.7,1.8-1.3,3.7-1.9,5.6
			c-0.1,0.4-0.4,0.9-0.2,1.2c1.2,2-0.5,1.8-2,1.8c-1.6,0-3.2,0-4.8,0c-0.5,0-1,0-1.2-0.5c-0.2-0.4,0.2-0.7,0.6-0.8
			c0.9-0.4,1.1-1.2,1.4-1.9c0.9-2.5,1.7-5,2.6-7.4c0.1-0.3,0.2-0.7,0.3-1C116.1,27,116,27,119,27C119.2,27,119.5,27,119.8,27
			C119.8,27,119.8,27,119.8,27z"/>
		<path fill="#0955B3" d="M142.8,11.9c-7.4,1.2-8.3,1.9-9.5,8.1c0-5.4-3.2-8-9.9-8.1c6.5-0.3,10.1-2.8,9.9-8.3
			c0.7,2.1,0.5,4.4,2.5,6C137.7,11.3,140.4,11.2,142.8,11.9z"/>
		<path fill="#8A096B" d="M60.5,50.8c0.1,0.5,0.1,1,0.2,1.5c0.6,3.3,2.5,4.8,6.5,5.3c1.1,0.1,2.2,0.3,3.4,0.5
			c-5.3,0.3-9.8,1.4-10,6.7c-0.5,0.2-0.6-0.1-0.7-0.3c-0.7-4.5-1.8-5.2-11-6.4c5.6-0.4,10.6-0.8,11-6.3
			C60.2,51.6,59.5,50.8,60.5,50.8z"/>
		<path fill="#090909" d="M115.1,47.1c0-1,0-1.8,0-2.5c0-0.2,0.2-0.4,0.5-0.4c0.3,0,0.5,0.2,0.5,0.4c0,1.1,0,2.3,0,3.4
			c0,0.5-0.6,0.4-1,0.4c-0.6,0-1,0-1.3-0.6c-0.4-0.8-0.9-1.5-1.6-2.2c0,0.7,0,1.5,0,2.2c0,0.3,0,0.6-0.5,0.6c-0.4,0-0.6-0.2-0.6-0.5
			c0-1,0-2.1,0-3.1c0-0.4,0.2-0.6,0.7-0.7c0.6,0,1.3-0.1,1.6,0.5C113.9,45.3,114.1,46.2,115.1,47.1z"/>
		<path fill="#0B0B0B" d="M71.3,48.4c-1.7,0-2.7-0.8-2.8-2.2c0-1.3,1.1-2.3,2.7-2.3c1.6,0,2.8,0.9,2.8,2.3
			C74,47.5,73,48.4,71.3,48.4z"/>
		<path fill="#0C0C0C" d="M103,46.1c0.1-1.3,1.3-2.2,2.9-2.2c1.6,0,2.7,1,2.6,2.4c0,1.4-1.1,2.2-2.8,2.2C104,48.4,103,47.5,103,46.1
			z"/>
		<path fill="#0F0F0F" d="M63.7,44.8c-1.9,0.5,1.2,0.9,1.5,1.2c0.8,0.5,1.1,1,0.6,1.8c-0.4,0.7-1.2,0.7-2,0.7
			c-1.2,0-2.2-0.2-2.4-1.4c0.7-0.5,2,0.8,2.6,0.5c0.7,0,1.3-1.5-1.8-1.4c-0.9-0.7-1.1-1.4,0.1-1.9c1.4-0.6,2.8-0.5,3.6,0.9"/>
		<path fill="#0C0C0C" d="M87.5,45.8c0,1.2,0.1,2.4-1.9,2.6c-1,0.1-2.1,0.1-2.6-0.8c-0.5-1.1-0.4-2.2-0.1-3.4c0-0.1,0.4-0.2,0.5-0.1
			c0.2,0.1,0.5,0.3,0.5,0.4c0.1,0.6,0,1.3,0.1,1.9c0,0.6,0.1,1.2,1.1,1.2c0.9,0,1.1-0.5,1.1-1.1c0-0.5,0-0.9,0-1.4
			c0-0.4-0.3-1,0.6-1c0.9,0,0.5,0.7,0.6,1C87.5,45.4,87.5,45.6,87.5,45.8z"/>
		<path fill="#1E1E1E" d="M100.8,48.2c-1.4,0.3-2.4,0.3-3.6,0.1c0.9-1.2,2-2.3,0.2-3.5c-0.4-0.2-0.1-0.6,0.2-0.6
			c0.8-0.1,1.5-0.1,2.3,0c0.5,0,0.7,0.4,0.3,0.7C98.9,45.9,99.1,47,100.8,48.2z"/>
		<path fill="#1C1C1C" d="M92.3,44.1c0.6,0,1.3,0,1.9,0c0.2,0,0.4,0.2,0.4,0.3c0.1,0.3-0.1,0.5-0.4,0.5c-1.7-0.2-1.2,0.9-1.2,1.6
			c0,0.3,0,0.7,0,1c0,0.4,0.2,0.9-0.6,0.9c-0.9,0-0.7-0.6-0.7-1c0-0.6,0-1.1,0-1.7c0-0.3,0.1-0.7-0.5-0.8c-0.4,0-1.2,0.1-1.1-0.5
			c0.1-0.6,0.9-0.3,1.4-0.4C91.7,44,92,44,92.3,44.1C92.3,44,92.3,44,92.3,44.1z"/>
		<path fill="#111111" d="M76.6,46.1c0.4-0.5-0.7-1.9,0.7-1.9c1.1,0,0.5,1.3,0.5,2c0,1,0.2,1.6,1.6,1.4c0.4,0,0.9-0.1,0.9,0.4
			c0,0.4-0.5,0.3-0.8,0.3C76.8,48.6,76.6,48.5,76.6,46.1z"/>
		<path fill="#D2A1C6" d="M60.5,66.6c0,1,0,1.9,0,3.2c-0.8-1.6-0.8-2.9-0.7-4.2C60.8,65.6,60.1,66.3,60.5,66.6z"/>
		<path fill="#8B0C6D" d="M93.2,12.5c1-0.2,2.1,0.3,3.1-0.3c0.8,0.1,1.7,0.2,2.5,0.3c0.1,0.3,0,0.5-0.4,0.4
			C96.6,12.7,94.9,13,93.2,12.5z"/>
		<path fill="#105AB5" d="M96.4,58c-0.3,0.1-0.6,0.2-1,0.3c-0.8-0.1-1.6-0.2-2.5-0.3c-0.1-0.6,0.4-0.4,0.8-0.3
			C94.7,57.7,95.6,57.6,96.4,58z"/>
		<path fill="#82A8D8" d="M144.3,11.9c1.5-0.3,2.4-0.3,3.5,0C146.7,12.2,145.8,12.2,144.3,11.9z"/>
		<path fill="#B461A0" d="M60.5,50.8c-0.2,0.3-0.4,0.7-0.7,1c-0.1-0.7,0-1.4,0.3-2.1c0.2-0.1,0.3-0.1,0.4,0
			C60.5,50.1,60.5,50.5,60.5,50.8z"/>
		<path fill="#B767A4" d="M60.5,66.6c-0.2-0.3-0.5-0.7-0.7-1c0-0.3,0-0.7,0-1c0.2,0.1,0.5,0.2,0.7,0.3C60.5,65.5,60.5,66,60.5,66.6z
			"/>
		<path fill="#6F9CD2" d="M133.4,2.6c-0.2-1-0.3-1.7,0.1-2.4C133.7,0.9,133.7,1.6,133.4,2.6z"/>
		<path fill="#82A8D8" d="M122,11.9c-1.2,0.3-2,0.3-2.9,0.1C120,11.7,120.8,11.7,122,11.9z"/>
		<path fill="#C280B3" d="M98.3,12.9c0.1-0.1,0.3-0.2,0.4-0.4c0.5,0,1.3-0.1,1.1,0.4C99.6,13.4,98.9,13.1,98.3,12.9z"/>
		<path fill="#135DB6" d="M143.9,16.9c-0.2,0.1-0.4,0.2-0.5,0.3c-0.5-0.1-1.1-0.2-1.6-0.4c-0.1-0.3,0-0.5,0.4-0.3
			C142.7,16.6,143.4,16.5,143.9,16.9z"/>
		<path fill="#85ABD9" d="M140.4,16.6c-0.6-0.1-1.2-0.3-1.9-0.4c0.8-0.4,1.3-0.3,1.9,0.1c0.1,0.1,0.2,0.2,0.1,0.2
			C140.5,16.6,140.4,16.6,140.4,16.6z"/>
		<path fill="#D3A2C7" d="M101.2,13.1c0.6-0.4,1,0,1.5,0.2C102,13.8,101.7,13.1,101.2,13.1z"/>
		<path fill="#A94A92" d="M51.7,53.2c0.7,0.1,1.4,0.3,2,0.4c0,0.1,0,0.1,0.1,0.2c-0.7,0.1-1.4,0.1-2.1-0.3c-0.1-0.1-0.2-0.1-0.1-0.2
			C51.7,53.3,51.7,53.2,51.7,53.2z"/>
		<path fill="#BFD2EB" d="M90.7,57.6c-0.8,0-1.2-0.1-1.7-0.4C89.7,56.9,90.2,56.9,90.7,57.6z"/>
		<path fill="#88ADDA" d="M93.8,57.6c-0.3,0.1-0.5,0.2-0.8,0.3c-0.3,0-0.9,0-0.7-0.3C92.6,57.1,93.3,57.4,93.8,57.6z"/>
		<path fill="#6A98D0" d="M133.4,23.5c-0.2-0.6-0.3-1,0-1.6C133.8,22.4,133.7,22.8,133.4,23.5z"/>
		<path fill="#4F85C8" d="M140.4,16.6c0-0.1,0-0.2,0-0.4c0.6,0,1.2-0.1,1.8,0.3c-0.1,0.1-0.3,0.2-0.4,0.3
			C141.3,16.8,140.8,16.7,140.4,16.6z"/>
		<path fill="#C280B3" d="M60.5,49.7c-0.1,0-0.3,0-0.4,0c0-0.6,0-1.1,0.1-1.7c0.1-0.2,0.2-0.2,0.3,0C60.5,48.6,60.5,49.2,60.5,49.7z
			"/>
		<path fill="#931C76" d="M51.7,53.2c0,0.1,0,0.2,0,0.3c-0.6,0-1.2,0-1.8-0.3c0.2-0.1,0.3-0.2,0.5-0.3C50.9,53,51.3,53.1,51.7,53.2z
			"/>
		<path fill="#CE99C2" d="M53.8,53.8c0-0.1-0.1-0.1-0.1-0.2c0.5,0.1,1,0.3,1.6,0.4C54.7,54.3,54.2,54.3,53.8,53.8z"/>
		<path fill="#D19EC4" d="M60.5,48c-0.1,0-0.2,0-0.3,0c0-0.5,0-0.9,0-1.7C60.7,47.1,60.6,47.5,60.5,48z"/>
	</g>
</g>
</svg>
